<?xml version="1.0" encoding="utf-8"?>
<!-- Generator: Adobe Illustrator 24.2.3, SVG Export Plug-In . SVG Version: 6.00 Build 0)  -->
<svg version="1.1" id="Calque_1" xmlns="http://www.w3.org/2000/svg" xmlns:xlink="http://www.w3.org/1999/xlink" x="0px" y="0px"
	 viewBox="0 0 768 1007" style="enable-background:new 0 0 768 1007;" xml:space="preserve">
<style type="text/css">
	.st0{fill:#FFFFFF;}
</style>
<g transform="translate(0.000000,1007.000000) scale(0.100000,-0.100000)">
	<path class="st0" d="M1214,8936c-17-8-42-29-55-47l-24-34l-3-398l-3-397l213,181c202,172,664,546,812,657l69,52h-489
		C1346,8949,1239,8946,1214,8936z"/>
	<path class="st0" d="M2270,8882c-47-36-166-129-265-207c-214-167-398-318-672-553l-203-173v-296c0-281,1-295,18-281
		c9,8,80,71,157,139c599,532,1134,951,1663,1301c108,71,199,132,201,134s-180,4-405,3h-409L2270,8882z"/>
	<path class="st0" d="M3285,8917c-627-390-1324-925-1990-1528l-160-145l-3-309l-2-308l98,94c529,509,1103,988,1577,1315
		c444,306,1013,624,1525,853l135,61l-565-1h-565L3285,8917z"/>
	<path class="st0" d="M4570,8901c-440-185-915-429-1347-692c-574-351-1186-837-1890-1503l-202-191l-1-324v-324l318,320
		c851,857,1424,1292,2222,1687c565,281,1029,419,1450,433c516,17,876-170,1094-568c87-159,128-318,128-499c0-289-109-558-353-866
		c-413-520-1299-1107-2187-1448c-671-257-1628-504-2592-668l-75-13l-3-248l-2-247l22,5c13,3,120,25,238,49
		c1189,244,2319,576,3098,910c684,294,1443,738,1985,1160l77,61v1456v1456l-23,34c-49,73,9,69-967,69l-875-1L4570,8901z"/>
	<path class="st0" d="M5005,8220c-504-54-1127-292-1785-683c-571-339-1213-878-1891-1589l-199-209v-187v-188l348,346
		c861,857,1430,1292,2147,1640c605,294,1064,400,1407,324c40-8,115-36,167-61c151-72,266-201,329-371c20-54,26-91,30-189
		c4-109,2-130-22-212c-59-207-181-387-417-616c-241-233-595-479-1034-718c-561-305-1399-586-2438-818c-158-35-507-109-514-109
		c-2,0-3-56-3-125s2-125,5-125c2,0,114,20,247,45c1306,240,2282,533,2993,899c792,407,1385,878,1678,1331c146,227,216,460,204,683
		c-7,139-35,241-102,377c-145,293-373,469-693,535C5345,8223,5127,8233,5005,8220z"/>
	<path class="st0" d="M6425,5734c-145-111-539-375-740-495c-661-396-1196-642-1970-907c-645-221-1616-475-2460-642
		c-60-12-113-25-117-28c-4-4,2-26,12-50c15-33,29-47,62-62c41-19,71-20,704-20h661l200,55c296,81,773,225,1043,315
		c1026,342,1733,660,2563,1151l167,100v334c0,184-3,335-7,334C6538,5819,6486,5781,6425,5734z"/>
	<path class="st0" d="M6395,4961c-595-348-1087-590-1664-820c-395-158-975-357-1444-497c-122-36-256-76-297-89l-75-23l729-1l729-1
		l170,61c445,159,982,378,1367,559c188,87,617,304,633,319c4,4,6,136,5,294l-3,286L6395,4961z"/>
	<path class="st0" d="M6375,4285c-399-211-1022-484-1550-680c-99-37-182-69-184-71c-3-2,405-3,905-2c858,3,911,4,937,21
		c16,10,37,32,47,50c19,30,20,53,20,400c0,202-3,367-7,367C6538,4369,6463,4331,6375,4285z"/>
	<path class="st0" d="M1355,3184c-90-23-151-67-185-133c-27-54-43-148-36-211c17-148,60-199,231-270c142-59,150-70,150-199
		c0-116-13-144-76-161c-88-24-159,31-159,122v38h-81h-82l7-62c13-120,88-221,184-248c50-14,146-13,196,2c24,8,59,31,86,58
		c59,58,80,127,80,266c0,114-12,165-47,212c-33,43-65,63-192,113c-123,50-141,71-141,162c0,100,39,157,108,157c70,0,107-38,119-126
		l6-44h73h74v67c0,47-6,79-21,109c-23,49-86,110-134,130C1478,3181,1386,3192,1355,3184z"/>
	<path class="st0" d="M1800,2713c0-431,2-471,19-508c44-98,131-155,235-155c104,1,185,50,232,142l24,47v471v470h-75h-75v-447
		c0-424-1-450-19-479c-27-44-77-60-124-40c-63,26-62,16-65,514l-3,452h-74h-75V2713z"/>
	<path class="st0" d="M2470,2621v-561h80h80v240v240h48h49l66-212c36-117,69-225,72-240c7-28,8-28,91-28c46,0,84,2,84,4
		c0,3-38,115-84,250l-85,246l53,53c65,64,81,115,81,247c0,154-44,243-142,291c-43,21-65,24-220,27l-173,4V2621z M2791,3014
		c42-21,59-68,59-165c0-136-26-166-152-176l-68-6v182v181h65C2735,3030,2773,3024,2791,3014z"/>
	<path class="st0" d="M3140,2620v-560h80h80v240v240h140h140v70v70h-140h-140v175v175h160h160v75v75h-240h-240V2620z"/>
	<path class="st0" d="M3730,2621v-561h75h75l2,238l3,237h49h50l58-185c32-102,65-209,74-237l15-53h84h84l-85,250l-85,250l50,49
		c62,60,81,118,81,246c0,160-44,252-141,295c-48,22-72,25-221,28l-168,4V2621z M4044,3016c44-18,66-74,65-164c-1-135-34-173-150-176
		l-74-1l-3,178l-2,177h65C3981,3030,4026,3024,4044,3016z"/>
	<path class="st0" d="M4400,2620v-560h80h80v560v560h-80h-80V2620z"/>
	<path class="st0" d="M4720,2620v-562l168,4c185,3,204,9,274,76c69,66,73,91,73,487c0,345,0,351-23,401c-13,28-38,65-55,82
		c-57,55-95,65-274,70l-163,4V2620z M5020,3017c14-7,33-28,42-47c16-31,18-70,18-355s-2-324-18-355c-20-40-61-59-134-59l-48-1v415
		v415h58C4969,3030,5006,3024,5020,3017z"/>
	<path class="st0" d="M5370,2620v-560h240h240v75v75h-160h-160v170v170h140h140v70v69l-137,3l-138,3l-3,168l-2,167h160h160v75v75
		h-240h-240V2620z"/>
	<path class="st0" d="M5980,2621v-561h75h75l2,238l3,237h49h50l42-135c23-74,57-181,74-237l32-103h83h84l-86,250l-85,249l49,48
		c63,61,86,125,86,238c1,161-42,253-140,301c-56,28-65,29-225,33l-168,3V2621z M6289,3019c43-15,64-59,69-149c8-145-28-191-149-194
		l-74-1l-3,178l-2,177h63C6228,3030,6271,3025,6289,3019z"/>
	<path class="st0" d="M1130,1460v-330h25h25v150v150h150c143,0,150,1,150,20s-7,20-150,20h-150v140v140h175c168,0,175,1,175,20
		s-7,20-200,20h-200V1460z"/>
	<path class="st0" d="M1760,1779c-47-19-93-62-114-108c-18-41-21-64-21-211c0-148,2-170,22-212c66-143,283-164,381-38
		c35,46,42,89,42,254c0,135-3,167-19,201c-23,49-64,89-113,109C1897,1792,1799,1794,1760,1779z M1941,1727c55-37,76-78,85-164
		c10-107,0-263-20-300c-55-107-198-130-282-47c-48,48-57,94-52,269c4,171,13,199,83,241C1810,1759,1893,1759,1941,1727z"/>
	<path class="st0" d="M2250,1538c0-225,3-258,19-293c36-77,106-117,206-117c108-1,193,64,214,162c6,28,11,150,11,275v225h-25h-25
		v-243c0-232-1-245-22-287c-27-52-60-78-116-91c-90-20-188,35-211,118c-6,22-11,139-11,271c0,225-1,232-20,232S2250,1783,2250,1538z
		"/>
	<path class="st0" d="M2900,1460c0-322,0-330,20-330c19,0,20,8,22,288l3,287l190-287c154-232,194-287,213-287l22-1v330
		c0,322,0,330-20,330c-19,0-20-8-22-287l-3-287l-190,287c-154,233-194,286-212,287h-23V1460z"/>
	<path class="st0" d="M3580,1460v-330h133c151,0,194,9,242,51c58,51,70,100,70,289c0,142-3,170-19,200c-52,97-108,120-298,120h-128
		V1460z M3904,1721c65-41,80-89,80-261c0-134-1-149-24-195c-38-76-83-95-222-95h-108v291v291l118-3C3851,1745,3870,1742,3904,1721z"
		/>
	<path class="st0" d="M4355,1773c-16-41-235-636-235-639c0-2,11-4,24-4c22,0,27,9,51,80l27,80h158h158l28-80c24-68,32-80,51-80
		c13,0,23,3,23,8c0,4-54,151-119,327c-98,264-122,321-138,323C4371,1790,4360,1784,4355,1773z M4514,1353l7-23h-140
		c-78,0-141,1-141,3c0,7,131,371,137,380C4382,1721,4480,1464,4514,1353z"/>
	<path class="st0" d="M4630,1770c0-19,7-20,100-20h100v-310v-310h25h25v310v310h100c93,0,100,1,100,20s-7,20-225,20
		S4630,1789,4630,1770z"/>
	<path class="st0" d="M5210,1460v-330h25h25v330v330h-25h-25V1460z"/>
	<path class="st0" d="M5570,1774c-42-18-86-58-108-99c-21-38-30-328-13-393c57-209,385-203,430,8c14,65,14,274,1,338
		c-21,98-107,162-216,162C5632,1789,5589,1782,5570,1774z M5769,1721c59-42,71-85,71-261c0-131-3-162-19-197c-52-113-212-131-294-33
		c-34,40-42,80-42,230c0,69,4,142,8,162c9,45,50,96,92,114C5632,1758,5729,1750,5769,1721z"/>
	<path class="st0" d="M6070,1461v-331h25h25v288v287l190-285c156-234,194-286,215-288l25-3v330c0,324,0,331-20,331s-20-7-20-278
		c0-153-3-282-7-285c-3-4-91,120-195,275c-154,233-192,284-213,286l-25,3V1461z"/>
	<path class="st0" d="M6677,1232c-22-24-21-45,1-65c24-22,56-22,73,1c11,14,11,15-1,5c-18-16-52-17-68-1c-19,19-14,45,10,62
		c12,9,18,16,12,16S6686,1242,6677,1232z"/>
	<path class="st0" d="M6738,1234c12-8,22-23,23-32c0-11,2-13,6-4c6,14-24,52-41,52C6720,1250,6726,1243,6738,1234z"/>
	<path class="st0" d="M6712,1201c-11-7-11-9,2-14c10-4,16-1,16,8C6730,1212,6729,1212,6712,1201z"/>
</g>
</svg>
